<?xml version="1.0" encoding="UTF-8" standalone="no"?>
<!DOCTYPE svg PUBLIC "-//W3C//DTD SVG 1.1//EN" "http://www.w3.org/Graphics/SVG/1.1/DTD/svg11.dtd">
<svg width="100%" height="100%" viewBox="0 0 320 221" version="1.1" xmlns="http://www.w3.org/2000/svg" xmlns:xlink="http://www.w3.org/1999/xlink" xml:space="preserve" xmlns:serif="http://www.serif.com/" style="fill-rule:evenodd;clip-rule:evenodd;stroke-linejoin:round;stroke-miterlimit:2;">
    <g transform="matrix(1,0,0,1,0,2)">
        <path d="M-1,14.5C2.667,10.333 17.8,0 35,0C56.5,0 89.5,5.5 153,65C158.702,70.343 193,103.5 201.5,109C210,114.5 229,128 247.5,128.5C266,129 278.5,126.5 300,100.5C316.441,80.618 319.14,66.875 319.5,61.509L319.5,59C319.5,59 319.611,59.858 319.5,61.509L319.5,223L-1,223L-1,14.5Z" style="fill:rgb(0,162,172);fill-rule:nonzero;"/>
    </g>
    <g id="Vector-3-3x" serif:id="Vector 3@3x" transform="matrix(1,0,0,1,159.732,114.82)">
        <g transform="matrix(1,0,0,1,-160,-107.5)">
            <clipPath id="_clip1">
                <rect x="0" y="0" width="320" height="215"/>
            </clipPath>
            <g clip-path="url(#_clip1)">
                <path d="M32.425,0.009C15.657,0.009 3.822,7.967 -0.002,11.681L-1,217L319.781,217C319.947,170.136 320.178,76.407 319.779,76.407C319.28,76.407 304.314,113.014 291.842,128.93C279.37,144.847 268.893,154.396 250.934,153.866C232.974,153.335 203.041,139.541 157.145,87.018C120.427,44.999 95.316,26.244 87.5,22C87.5,22 59,0.009 32.425,0.009Z" style="fill:rgb(48,212,222);fill-rule:nonzero;"/>
            </g>
        </g>
    </g>
</svg>
