<?xml version="1.0" encoding="UTF-8" standalone="no"?>
<!DOCTYPE svg PUBLIC "-//W3C//DTD SVG 1.1//EN" "http://www.w3.org/Graphics/SVG/1.1/DTD/svg11.dtd">
<svg width="100%" height="100%" viewBox="0 0 320 221" version="1.1" xmlns="http://www.w3.org/2000/svg" xmlns:xlink="http://www.w3.org/1999/xlink" xml:space="preserve" xmlns:serif="http://www.serif.com/" style="fill-rule:evenodd;clip-rule:evenodd;stroke-linejoin:round;stroke-miterlimit:2;">
    <g id="Vector-3-3x" serif:id="Vector 3@3x" transform="matrix(1,0,0,1,159.732,114.82)">
        <g id="charts_bg_mobile" transform="matrix(-1.00324,0,0,1.0418,-0.893243,18.979)">
            <g id="Vector-3-3x1" serif:id="Vector 3@3x">
                <g id="charts_bg_mobile1" serif:id="charts_bg_mobile" transform="matrix(1,0,0,1,-160,-110.5)">
                    <clipPath id="_clip1">
                        <rect x="0" y="0" width="320" height="221"/>
                    </clipPath>
                    <g clip-path="url(#_clip1)">
                        <g transform="matrix(1,0,0,1,-0.322,92.289)">
                            <g id="Vector-2" serif:id="Vector 2">
                                <g>
                                    <path d="M320,7.998C316.34,5.7 301.232,0 284.062,0C262.599,0 229.655,3.034 166.264,35.852C160.571,38.799 126.332,57.087 117.847,60.121C109.362,63.155 90.394,70.601 71.926,70.877C53.458,71.153 40.979,69.774 19.516,55.433C3.103,44.466 0.408,36.886 0.049,33.927L0.049,32.543C0.049,32.543 -0.061,33.016 0.049,33.927L0.049,123L320,123L320,7.998Z" style="fill:rgb(0,162,172);fill-rule:nonzero;"/>
                                </g>
                            </g>
                        </g>
                        <g id="Vector-3-3x2" serif:id="Vector 3@3x" transform="matrix(1,0,0,1,159.732,114.82)">
                            <g transform="matrix(1,0,0,1,-160.25,-10.7272)">
                                <g id="Vector-3" serif:id="Vector 3">
                                    <g>
                                        <g>
                                            <path d="M286.679,0C303.395,0 315.193,3.191 319.005,4.68L320,87L0.219,87C0.053,68.21 -0.178,30.631 0.22,30.631C0.718,30.631 15.637,45.308 28.071,51.69C40.504,58.071 50.947,61.9 68.851,61.687C86.755,61.474 116.594,55.944 162.348,34.885C198.951,18.038 223.984,10.519 231.776,8.817C231.776,8.817 260.187,-0 286.679,0Z" style="fill:rgb(48,212,222);fill-rule:nonzero;"/>
                                        </g>
                                    </g>
                                </g>
                            </g>
                            <g transform="matrix(0.723665,0,0,0.878788,-71.428,-92.6288)">
                                <rect x="-122.903" y="183.077" width="442.458" height="43.546" style="fill:rgb(48,212,222);"/>
                            </g>
                        </g>
                    </g>
                </g>
                <g id="charts_bg_mobile2" serif:id="charts_bg_mobile">
                </g>
            </g>
        </g>
    </g>
</svg>
