<?xml version="1.0" encoding="UTF-8" standalone="no"?>
<!DOCTYPE svg PUBLIC "-//W3C//DTD SVG 1.1//EN" "http://www.w3.org/Graphics/SVG/1.1/DTD/svg11.dtd">
<svg width="100%" height="100%" viewBox="0 0 100 90" version="1.1" xmlns="http://www.w3.org/2000/svg" xmlns:xlink="http://www.w3.org/1999/xlink" xml:space="preserve" xmlns:serif="http://www.serif.com/" style="fill-rule:evenodd;clip-rule:evenodd;stroke-linecap:round;stroke-linejoin:round;stroke-miterlimit:1.5;">
    <g transform="matrix(1.205,0,0,1.2359,187.327,106.571)">
        <g id="Vector-3-3x" serif:id="Vector 3@3x">
            <g>
                <g transform="matrix(1.34548,0,0,1.34901,41.5428,16.1794)">
                    <g>
                        <g>
                            <g transform="matrix(0.878769,0.477248,-0.477248,0.878769,-36.8428,48.7754)">
                                <g transform="matrix(0.970089,0,0,0.489574,-152.188,-72.2659)">
                                    <ellipse cx="25.658" cy="92.864" rx="2.288" ry="4.371" style="fill:rgb(255,206,0);"/>
                                </g>
                                <g transform="matrix(0.942119,0,0,0.489574,-146.542,-80.6102)">
                                    <ellipse cx="25.658" cy="92.864" rx="2.288" ry="4.371" style="fill:rgb(255,206,0);"/>
                                </g>
                                <g transform="matrix(1.028,0.599666,-0.89032,1.52626,-76.1618,-176.05)">
                                    <path d="M27.946,82.5C27.946,82.157 27.538,81.878 27.036,81.878L25.214,81.878C24.711,81.878 24.303,82.157 24.303,82.5L24.303,87.569C24.303,87.912 24.711,88.191 25.214,88.191L27.036,88.191C27.538,88.191 27.946,87.912 27.946,87.569L27.946,82.5Z" style="fill:rgb(255,206,0);"/>
                                </g>
                            </g>
                        </g>
                        <g transform="matrix(-0.00404327,-0.999992,0.999992,-0.00404327,-68.3975,-162.97)">
                            <g>
                                <g transform="matrix(0.970089,0,0,0.489574,-152.188,-72.2659)">
                                    <ellipse cx="25.658" cy="92.864" rx="2.288" ry="4.371" style="fill:rgb(255,206,0);"/>
                                </g>
                                <g transform="matrix(0.942119,0,0,0.489574,-146.542,-80.6102)">
                                    <ellipse cx="25.658" cy="92.864" rx="2.288" ry="4.371" style="fill:rgb(255,206,0);"/>
                                </g>
                                <g transform="matrix(1.028,0.599666,-0.89032,1.52626,-76.1618,-176.05)">
                                    <path d="M27.946,82.501C27.946,82.157 27.538,81.878 27.036,81.878L25.214,81.878C24.711,81.878 24.303,82.157 24.303,82.501L24.303,87.569C24.303,87.912 24.711,88.191 25.214,88.191L27.036,88.191C27.538,88.191 27.946,87.912 27.946,87.569L27.946,82.501Z" style="fill:rgb(255,206,0);"/>
                                </g>
                            </g>
                            <g transform="matrix(0.862696,-0.505724,0.505724,0.862696,8.17149,-64.8855)">
                                <g transform="matrix(0.970089,0,0,0.489574,-152.188,-72.2659)">
                                    <ellipse cx="25.658" cy="92.864" rx="2.288" ry="4.371" style="fill:rgb(255,206,0);"/>
                                </g>
                                <g transform="matrix(0.942119,0,0,0.489574,-146.542,-80.6102)">
                                    <ellipse cx="25.658" cy="92.864" rx="2.288" ry="4.371" style="fill:rgb(255,206,0);"/>
                                </g>
                                <g transform="matrix(1.028,0.599666,-0.89032,1.52626,-76.1618,-176.05)">
                                    <path d="M27.946,82.509C27.946,82.161 27.538,81.878 27.036,81.878L25.214,81.878C24.711,81.878 24.303,82.161 24.303,82.509L24.303,87.56C24.303,87.908 24.711,88.191 25.214,88.191L27.036,88.191C27.538,88.191 27.946,87.908 27.946,87.56L27.946,82.509Z" style="fill:rgb(255,206,0);"/>
                                </g>
                            </g>
                        </g>
                    </g>
                    <g transform="matrix(-0.999853,-0.0171659,0.0171659,-0.999853,-229.888,-97.0966)">
                        <g>
                            <g>
                                <g transform="matrix(0.970089,0,0,0.489574,-152.188,-72.2659)">
                                    <ellipse cx="25.658" cy="92.864" rx="2.288" ry="4.371" style="fill:rgb(255,206,0);"/>
                                </g>
                                <g transform="matrix(0.942119,0,0,0.489574,-146.542,-80.6102)">
                                    <ellipse cx="25.658" cy="92.864" rx="2.288" ry="4.371" style="fill:rgb(255,206,0);"/>
                                </g>
                                <g transform="matrix(1.028,0.599666,-0.89032,1.52626,-76.1618,-176.05)">
                                    <path d="M27.946,82.484C27.946,82.15 27.538,81.878 27.036,81.878L25.214,81.878C24.711,81.878 24.303,82.15 24.303,82.484L24.303,87.585C24.303,87.919 24.711,88.191 25.214,88.191L27.036,88.191C27.538,88.191 27.946,87.919 27.946,87.585L27.946,82.484Z" style="fill:rgb(255,206,0);"/>
                                </g>
                            </g>
                            <g transform="matrix(0.862696,-0.505724,0.505724,0.862696,8.17149,-64.8855)">
                                <g transform="matrix(0.970089,0,0,0.489574,-152.188,-72.2659)">
                                    <ellipse cx="25.658" cy="92.864" rx="2.288" ry="4.371" style="fill:rgb(255,206,0);"/>
                                </g>
                                <g transform="matrix(0.942119,0,0,0.489574,-146.542,-80.6102)">
                                    <ellipse cx="25.658" cy="92.864" rx="2.288" ry="4.371" style="fill:rgb(255,206,0);"/>
                                </g>
                                <g transform="matrix(1.028,0.599666,-0.89032,1.52626,-76.1618,-176.05)">
                                    <path d="M27.946,82.475C27.946,82.146 27.538,81.878 27.036,81.878L25.214,81.878C24.711,81.878 24.303,82.146 24.303,82.475L24.303,87.594C24.303,87.924 24.711,88.191 25.214,88.191L27.036,88.191C27.538,88.191 27.946,87.924 27.946,87.594L27.946,82.475Z" style="fill:rgb(255,206,0);"/>
                                </g>
                            </g>
                            <g transform="matrix(0.878769,0.477248,-0.477248,0.878769,-36.8428,48.7754)">
                                <g transform="matrix(0.970089,0,0,0.489574,-152.188,-72.2659)">
                                    <ellipse cx="25.658" cy="92.864" rx="2.288" ry="4.371" style="fill:rgb(255,206,0);"/>
                                </g>
                                <g transform="matrix(0.942119,0,0,0.489574,-146.542,-80.6102)">
                                    <ellipse cx="25.658" cy="92.864" rx="2.288" ry="4.371" style="fill:rgb(255,206,0);"/>
                                </g>
                                <g transform="matrix(1.028,0.599666,-0.89032,1.52626,-76.1618,-176.05)">
                                    <path d="M27.946,82.501C27.946,82.157 27.538,81.878 27.036,81.878L25.214,81.878C24.711,81.878 24.303,82.157 24.303,82.501L24.303,87.569C24.303,87.912 24.711,88.191 25.214,88.191L27.036,88.191C27.538,88.191 27.946,87.912 27.946,87.569L27.946,82.501Z" style="fill:rgb(255,206,0);"/>
                                </g>
                            </g>
                        </g>
                        <g transform="matrix(-0.00404327,-0.999992,0.999992,-0.00404327,-68.3975,-162.97)">
                            <g>
                                <g transform="matrix(0.970089,0,0,0.489574,-152.188,-72.2659)">
                                    <ellipse cx="25.658" cy="92.864" rx="2.288" ry="4.371" style="fill:rgb(255,206,0);"/>
                                </g>
                                <g transform="matrix(0.942119,0,0,0.489574,-146.542,-80.6102)">
                                    <ellipse cx="25.658" cy="92.864" rx="2.288" ry="4.371" style="fill:rgb(255,206,0);"/>
                                </g>
                                <g transform="matrix(1.028,0.599666,-0.89032,1.52626,-76.1618,-176.05)">
                                    <path d="M27.946,82.5C27.946,82.157 27.538,81.878 27.036,81.878L25.214,81.878C24.711,81.878 24.303,82.157 24.303,82.5L24.303,87.569C24.303,87.912 24.711,88.191 25.214,88.191L27.036,88.191C27.538,88.191 27.946,87.912 27.946,87.569L27.946,82.5Z" style="fill:rgb(255,206,0);"/>
                                </g>
                            </g>
                            <g transform="matrix(0.862696,-0.505724,0.505724,0.862696,8.17149,-64.8855)">
                                <g transform="matrix(0.970089,0,0,0.489574,-152.188,-72.2659)">
                                    <ellipse cx="25.658" cy="92.864" rx="2.288" ry="4.371" style="fill:rgb(255,206,0);"/>
                                </g>
                                <g transform="matrix(0.942119,0,0,0.489574,-146.542,-80.6102)">
                                    <ellipse cx="25.658" cy="92.864" rx="2.288" ry="4.371" style="fill:rgb(255,206,0);"/>
                                </g>
                                <g transform="matrix(1.028,0.599666,-0.89032,1.52626,-76.1618,-176.05)">
                                    <path d="M27.946,82.509C27.946,82.161 27.538,81.878 27.036,81.878L25.214,81.878C24.711,81.878 24.303,82.161 24.303,82.509L24.303,87.56C24.303,87.908 24.711,88.191 25.214,88.191L27.036,88.191C27.538,88.191 27.946,87.908 27.946,87.56L27.946,82.509Z" style="fill:rgb(255,206,0);"/>
                                </g>
                            </g>
                            <g transform="matrix(0.878769,0.477248,-0.477248,0.878769,-36.8428,48.7754)">
                                <g transform="matrix(0.970089,0,0,0.489574,-152.188,-72.2659)">
                                    <ellipse cx="25.658" cy="92.864" rx="2.288" ry="4.371" style="fill:rgb(255,206,0);"/>
                                </g>
                                <g transform="matrix(0.942119,0,0,0.489574,-146.542,-80.6102)">
                                    <ellipse cx="25.658" cy="92.864" rx="2.288" ry="4.371" style="fill:rgb(255,206,0);"/>
                                </g>
                                <g transform="matrix(1.028,0.599666,-0.89032,1.52626,-76.1618,-176.05)">
                                    <path d="M27.946,82.484C27.946,82.15 27.538,81.878 27.036,81.878L25.214,81.878C24.711,81.878 24.303,82.15 24.303,82.484L24.303,87.585C24.303,87.92 24.711,88.191 25.214,88.191L27.036,88.191C27.538,88.191 27.946,87.92 27.946,87.585L27.946,82.484Z" style="fill:rgb(255,206,0);"/>
                                </g>
                            </g>
                        </g>
                    </g>
                </g>
                <g id="Ebene1" transform="matrix(1,0,0,1,-159.399,-114.82)">
                    <g transform="matrix(1.07222,0,0,1.07463,-4.13417,-6.52585)">
                        <circle cx="46.602" cy="68.24" r="13.4"/>
                    </g>
                    <g transform="matrix(1.02286,0,0,1,-1.49963,1)">
                        <path d="M52.232,86.655C52.232,86.655 52.107,85.568 52.107,85.28C52.107,84.4 52.249,82.903 52.603,81.78C52.978,80.592 54.207,78.406 54.357,78.155C54.661,77.643 55.522,76.592 57.238,74.023C57.783,73.208 58.835,70.676 58.982,70.53C59.513,69.999 59.467,66.434 59.857,65.655C59.989,65.39 58.327,60 57.482,59.155C56.657,58.33 54.849,55.401 53.107,54.53C51.846,53.899 49.845,52.905 48.357,52.905C47.944,52.905 44.97,52.291 44.232,52.53C43.577,52.741 42.423,52.713 41.857,53.28C41.561,53.575 40.765,53.621 40.482,53.905C39.806,54.58 37.089,56.047 36.357,56.78C35.035,58.101 33.32,61.474 32.989,63.399C32.467,66.43 33.698,71.077 33.735,71.308C33.868,72.125 36.155,75.49 36.811,76.146C38.138,77.473 38.828,79.507 39.357,81.28C39.884,83.048 39.733,86.531 39.982,86.78C40.248,87.046 52.232,87.05 52.232,86.655Z" style="fill:rgb(255,206,0);stroke:black;stroke-width:0.64px;"/>
                    </g>
                    <g transform="matrix(1.01511,0,0,1,-1.50509,-1.6)">
                        <circle cx="46.602" cy="68.24" r="13.4" style="fill:rgb(255,206,0);"/>
                    </g>
                    <g transform="matrix(0.997758,0,0,1,-0.420659,1)">
                        <g id="Ebene2">
                            <path d="M52.232,86.655C52.232,86.655 52.107,85.568 52.107,85.28C52.107,84.4 52.258,82.906 52.603,81.78C52.999,80.491 54.329,77.797 54.478,77.546C54.783,77.034 56.304,74.549 57.238,73.292C58.297,71.868 58.835,69.336 58.982,69.19C59.513,68.659 56.909,67.53 57.299,66.751C57.431,66.486 56.5,61.218 55.655,60.373C54.83,59.548 54.361,57.228 52.619,56.357C51.358,55.726 50.211,54.366 48.722,54.366C48.309,54.366 45.822,53.631 45.084,53.869C44.429,54.081 43.641,54.053 43.075,54.619C42.779,54.915 42.714,57.519 41.334,56.219C40.639,55.564 38.551,57.265 37.818,57.998C36.497,59.319 34.331,60.671 33.461,62.41C33.132,63.069 32.672,66.746 32.894,67.981C33.061,68.909 33.593,71.196 34.713,72.819C35.045,73.301 36.474,75.559 36.866,76.037C38.072,77.509 38.936,79.766 39.357,81.28C39.851,83.057 39.733,86.531 39.982,86.78C40.248,87.046 52.232,87.05 52.232,86.655Z" style="fill:rgb(255,206,0);"/>
                        </g>
                    </g>
                    <g transform="matrix(1,0,0,1,-0.08192,0.16384)">
                        <g transform="matrix(1.07407,0,0,1.10545,-3.3795,-10.1961)">
                            <g transform="matrix(0.459594,0,0,1.94208,24.5447,-73.9042)">
                                <path d="M53.051,87.64C53.051,87.088 51.052,86.64 48.59,86.64L43.178,86.64C40.716,86.64 38.718,87.088 38.718,87.64C38.718,88.192 40.716,88.64 43.178,88.64L48.59,88.64C51.052,88.64 53.051,88.192 53.051,87.64Z"/>
                            </g>
                            <g transform="matrix(1.15714,0,0,1.12477,-7.79206,-17.3113)">
                                <path d="M49.029,99.673C49.029,99.345 48.756,99.079 48.419,99.079L43.904,99.079C43.567,99.079 43.294,99.345 43.294,99.673L43.294,100.861C43.294,101.189 43.567,101.455 43.904,101.455L48.419,101.455C48.756,101.455 49.029,101.189 49.029,100.861L49.029,99.673Z"/>
                            </g>
                        </g>
                        <g transform="matrix(1,0,0,1,0,-0.16384)">
                            <g transform="matrix(0.459594,0,0,1.94208,24.5447,-73.9042)">
                                <path d="M53.051,87.64C53.051,87.088 51.109,86.64 48.717,86.64L43.052,86.64C40.66,86.64 38.718,87.088 38.718,87.64C38.718,88.192 40.66,88.64 43.052,88.64L48.717,88.64C51.109,88.64 53.051,88.192 53.051,87.64Z" style="fill:rgb(36,36,36);"/>
                            </g>
                            <g transform="matrix(1.15714,0,0,1.06897,-7.79206,-11.6494)">
                                <path d="M49.029,99.673C49.029,99.345 48.776,99.079 48.466,99.079L43.857,99.079C43.546,99.079 43.294,99.345 43.294,99.673L43.294,100.861C43.294,101.189 43.546,101.455 43.857,101.455L48.466,101.455C48.776,101.455 49.029,101.189 49.029,100.861L49.029,99.673Z" style="fill:rgb(36,36,36);"/>
                            </g>
                        </g>
                    </g>
                    <g>
                        <g transform="matrix(0.935035,0,0,1.36127,2.69616,-26.2862)">
                            <path d="M53.051,87.14C53.051,86.864 52.716,86.64 52.304,86.64L39.464,86.64C39.052,86.64 38.718,86.864 38.718,87.14L38.718,88.14C38.718,88.416 39.052,88.64 39.464,88.64L52.304,88.64C52.716,88.64 53.051,88.416 53.051,88.14L53.051,87.14Z" style="fill:rgb(6,0,0);"/>
                        </g>
                        <g transform="matrix(0.88253,0,0,1,5.05669,5.42368)">
                            <path d="M53.051,87.14C53.051,86.864 52.791,86.64 52.47,86.64L39.299,86.64C38.978,86.64 38.718,86.864 38.718,87.14L38.718,88.14C38.718,88.416 38.978,88.64 39.299,88.64L52.47,88.64C52.791,88.64 53.051,88.416 53.051,88.14L53.051,87.14Z" style="fill:rgb(36,36,36);"/>
                        </g>
                    </g>
                    <g>
                        <g transform="matrix(1.0197,0,0,1.28672,-1.19623,-21.8753)">
                            <path d="M53.051,87.14C53.051,86.864 52.761,86.64 52.404,86.64L39.365,86.64C39.008,86.64 38.718,86.864 38.718,87.14L38.718,88.14C38.718,88.416 39.008,88.64 39.365,88.64L52.404,88.64C52.761,88.64 53.051,88.416 53.051,88.14L53.051,87.14Z" style="fill:rgb(6,0,0);"/>
                        </g>
                        <g transform="matrix(0.968261,0,0,1,1.12301,3.21184)">
                            <path d="M53.051,87.14C53.051,86.864 52.814,86.64 52.521,86.64L39.247,86.64C38.955,86.64 38.718,86.864 38.718,87.14L38.718,88.14C38.718,88.416 38.955,88.64 39.247,88.64L52.521,88.64C52.814,88.64 53.051,88.416 53.051,88.14L53.051,87.14Z" style="fill:rgb(36,36,36);"/>
                        </g>
                    </g>
                    <g>
                        <g transform="matrix(1.09716,0,0,1.24576,-4.75054,-20.5384)">
                            <path d="M53.051,87.14C53.051,86.864 52.79,86.64 52.469,86.64L39.3,86.64C38.979,86.64 38.718,86.864 38.718,87.14L38.718,88.14C38.718,88.416 38.979,88.64 39.3,88.64L52.469,88.64C52.79,88.64 53.051,88.416 53.051,88.14L53.051,87.14Z" style="fill:rgb(6,0,0);"/>
                        </g>
                        <g transform="matrix(1.04572,0,0,1,-2.43129,1)">
                            <path d="M53.051,87.14C53.051,86.864 52.831,86.64 52.561,86.64L39.208,86.64C38.937,86.64 38.718,86.864 38.718,87.14L38.718,88.14C38.718,88.416 38.937,88.64 39.208,88.64L52.561,88.64C52.831,88.64 53.051,88.416 53.051,88.14L53.051,87.14Z" style="fill:rgb(36,36,36);"/>
                        </g>
                    </g>
                </g>
            </g>
        </g>
    </g>
</svg>
