<?xml version="1.0" encoding="UTF-8" standalone="no"?>
<!DOCTYPE svg PUBLIC "-//W3C//DTD SVG 1.1//EN" "http://www.w3.org/Graphics/SVG/1.1/DTD/svg11.dtd">
<svg width="100%" height="100%" viewBox="0 0 42 60" version="1.1" xmlns="http://www.w3.org/2000/svg" xmlns:xlink="http://www.w3.org/1999/xlink" xml:space="preserve" xmlns:serif="http://www.serif.com/" style="fill-rule:evenodd;clip-rule:evenodd;stroke-linecap:round;stroke-linejoin:round;stroke-miterlimit:1.5;">
    <g id="Vector-3-3x" serif:id="Vector 3@3x" transform="matrix(0.1875,0,0,0.1875,29.9498,21.5287)">
        <g transform="matrix(6.44276,0,0,6.44276,-344.055,-440.037)">
            <g id="Ebene1">
                <g transform="matrix(1.07463,0,0,1.07463,-4.27876,-6.52585)">
                    <circle cx="46.602" cy="68.24" r="13.4"/>
                </g>
                <g transform="matrix(1,0,0,1,-0.333333,1)">
                    <path d="M52.232,86.655C52.232,86.655 52.107,85.568 52.107,85.28C52.107,84.4 52.249,82.903 52.603,81.78C52.978,80.592 54.207,78.406 54.357,78.155C54.661,77.643 55.522,76.592 57.238,74.023C57.783,73.208 58.835,70.676 58.982,70.53C59.513,69.999 59.467,66.434 59.857,65.655C59.989,65.39 58.327,60 57.482,59.155C56.657,58.33 54.849,55.401 53.107,54.53C51.846,53.899 49.845,52.905 48.357,52.905C47.944,52.905 44.97,52.291 44.232,52.53C43.577,52.741 42.423,52.713 41.857,53.28C41.561,53.575 40.765,53.621 40.482,53.905C39.806,54.58 37.089,56.047 36.357,56.78C35.035,58.101 34.726,61.165 33.857,62.905C33.527,63.563 33.42,69.657 33.982,70.78C34.346,71.509 35.825,75.38 36.482,76.036C37.478,77.033 38.773,79.489 39.357,81.28C39.928,83.034 39.733,86.531 39.982,86.78C40.248,87.046 52.232,87.05 52.232,86.655Z" style="fill:white;stroke:black;stroke-width:0.83px;"/>
                </g>
                <g transform="matrix(1.02636,0,0,1,-2.05545,-1.6)">
                    <circle cx="46.602" cy="68.24" r="13.4" style="fill:white;"/>
                </g>
                <g transform="matrix(0.948639,0,0,1,2.04569,1)">
                    <g id="Ebene2">
                        <path d="M52.232,86.655C52.232,86.655 52.107,85.568 52.107,85.28C52.107,84.4 52.258,82.906 52.603,81.78C52.999,80.491 54.329,77.797 54.478,77.546C54.783,77.034 56.304,74.549 57.238,73.292C58.297,71.868 58.835,69.336 58.982,69.19C59.513,68.659 56.909,67.53 57.299,66.751C57.431,66.486 56.5,61.218 55.655,60.373C54.83,59.548 54.361,57.228 52.619,56.357C51.358,55.726 50.211,54.366 48.722,54.366C48.309,54.366 45.822,53.631 45.084,53.869C44.429,54.081 43.641,54.053 43.075,54.619C42.779,54.915 42.714,57.519 41.334,56.219C40.639,55.564 38.551,57.265 37.818,57.998C36.497,59.319 34.726,61.165 33.857,62.905C33.527,63.563 33.42,70.022 33.982,71.145C34.346,71.874 36.069,75.136 36.725,75.792C37.722,76.789 38.814,79.448 39.357,81.28C39.881,83.049 39.733,86.531 39.982,86.78C40.248,87.046 52.232,87.05 52.232,86.655Z" style="fill:white;"/>
                    </g>
                </g>
                <g transform="matrix(1,0,0,1,-0.08192,0.16384)">
                    <g transform="matrix(1.07407,0,0,1.10545,-3.3795,-10.1961)">
                        <g transform="matrix(0.459594,0,0,1.94208,24.5447,-73.9042)">
                            <path d="M53.051,87.64C53.051,87.088 51.102,86.64 48.702,86.64L43.067,86.64C40.666,86.64 38.718,87.088 38.718,87.64C38.718,88.192 40.666,88.64 43.067,88.64L48.702,88.64C51.102,88.64 53.051,88.192 53.051,87.64Z"/>
                        </g>
                        <g transform="matrix(1.15714,0,0,1.12477,-7.79206,-17.3113)">
                            <path d="M49.029,99.673C49.029,99.345 48.762,99.079 48.434,99.079L43.888,99.079C43.56,99.079 43.294,99.345 43.294,99.673L43.294,100.861C43.294,101.189 43.56,101.455 43.888,101.455L48.434,101.455C48.762,101.455 49.029,101.189 49.029,100.861L49.029,99.673Z"/>
                        </g>
                    </g>
                    <g transform="matrix(1,0,0,1,0,-0.16384)">
                        <g transform="matrix(0.459594,0,0,1.94208,24.5447,-73.9042)">
                            <path d="M53.051,87.64C53.051,87.088 51.158,86.64 48.825,86.64L42.943,86.64C40.611,86.64 38.718,87.088 38.718,87.64C38.718,88.192 40.611,88.64 42.943,88.64L48.825,88.64C51.158,88.64 53.051,88.192 53.051,87.64Z" style="fill:rgb(36,36,36);"/>
                        </g>
                        <g transform="matrix(1.15714,0,0,1.06897,-7.79206,-11.6494)">
                            <path d="M49.029,99.673C49.029,99.345 48.783,99.079 48.48,99.079L43.843,99.079C43.54,99.079 43.294,99.345 43.294,99.673L43.294,100.861C43.294,101.189 43.54,101.455 43.843,101.455L48.48,101.455C48.783,101.455 49.029,101.189 49.029,100.861L49.029,99.673Z" style="fill:rgb(36,36,36);"/>
                        </g>
                    </g>
                </g>
                <g>
                    <g transform="matrix(0.935035,0,0,1.36127,2.69616,-26.2862)">
                        <path d="M53.051,87.14C53.051,86.864 52.725,86.64 52.323,86.64L39.446,86.64C39.044,86.64 38.718,86.864 38.718,87.14L38.718,88.14C38.718,88.416 39.044,88.64 39.446,88.64L52.323,88.64C52.725,88.64 53.051,88.416 53.051,88.14L53.051,87.14Z" style="fill:rgb(6,0,0);"/>
                    </g>
                    <g transform="matrix(0.88253,0,0,1,5.05669,5.42368)">
                        <path d="M53.051,87.14C53.051,86.864 52.797,86.64 52.484,86.64L39.284,86.64C38.972,86.64 38.718,86.864 38.718,87.14L38.718,88.14C38.718,88.416 38.972,88.64 39.284,88.64L52.484,88.64C52.797,88.64 53.051,88.416 53.051,88.14L53.051,87.14Z" style="fill:rgb(36,36,36);"/>
                    </g>
                </g>
                <g>
                    <g transform="matrix(1.0197,0,0,1.28672,-1.19623,-21.8753)">
                        <path d="M53.051,87.14C53.051,86.864 52.768,86.64 52.42,86.64L39.349,86.64C39,86.64 38.718,86.864 38.718,87.14L38.718,88.14C38.718,88.416 39,88.64 39.349,88.64L52.42,88.64C52.768,88.64 53.051,88.416 53.051,88.14L53.051,87.14Z" style="fill:rgb(6,0,0);"/>
                    </g>
                    <g transform="matrix(0.968261,0,0,1,1.12301,3.21184)">
                        <path d="M53.051,87.14C53.051,86.864 52.82,86.64 52.535,86.64L39.234,86.64C38.949,86.64 38.718,86.864 38.718,87.14L38.718,88.14C38.718,88.416 38.949,88.64 39.234,88.64L52.535,88.64C52.82,88.64 53.051,88.416 53.051,88.14L53.051,87.14Z" style="fill:rgb(36,36,36);"/>
                    </g>
                </g>
                <g>
                    <g transform="matrix(1.09716,0,0,1.24576,-4.75054,-20.5384)">
                        <path d="M53.051,87.14C53.051,86.864 52.797,86.64 52.483,86.64L39.285,86.64C38.972,86.64 38.718,86.864 38.718,87.14L38.718,88.14C38.718,88.416 38.972,88.64 39.285,88.64L52.483,88.64C52.797,88.64 53.051,88.416 53.051,88.14L53.051,87.14Z" style="fill:rgb(6,0,0);"/>
                    </g>
                    <g transform="matrix(1.04572,0,0,1,-2.43129,1)">
                        <path d="M53.051,87.14C53.051,86.864 52.837,86.64 52.573,86.64L39.196,86.64C38.932,86.64 38.718,86.864 38.718,87.14L38.718,88.14C38.718,88.416 38.932,88.64 39.196,88.64L52.573,88.64C52.837,88.64 53.051,88.416 53.051,88.14L53.051,87.14Z" style="fill:rgb(36,36,36);"/>
                    </g>
                </g>
            </g>
        </g>
        <g id="Cancel" transform="matrix(8.09107,0,0,8.09107,-3571.36,-9020.78)">
            <path d="M435,1114.17L443.484,1105.69C444.266,1104.91 445.527,1104.9 446.314,1105.69C447.095,1106.47 447.099,1107.73 446.312,1108.52L437.828,1117L446.312,1125.48C447.094,1126.27 447.1,1127.53 446.314,1128.31C445.533,1129.1 444.271,1129.1 443.484,1128.31L435,1119.83L426.516,1128.31C425.734,1129.09 424.473,1129.1 423.686,1128.31C422.905,1127.53 422.901,1126.27 423.688,1125.48L432.172,1117L423.688,1108.52C422.906,1107.73 422.9,1106.47 423.686,1105.69C424.467,1104.9 425.729,1104.9 426.516,1105.69L435,1114.17Z"/>
        </g>
    </g>
</svg>
