<?xml version="1.0" encoding="UTF-8" standalone="no"?>
<!DOCTYPE svg PUBLIC "-//W3C//DTD SVG 1.1//EN" "http://www.w3.org/Graphics/SVG/1.1/DTD/svg11.dtd">
<svg width="100%" height="100%" viewBox="0 0 320 221" version="1.1" xmlns="http://www.w3.org/2000/svg" xmlns:xlink="http://www.w3.org/1999/xlink" xml:space="preserve" xmlns:serif="http://www.serif.com/" style="fill-rule:evenodd;clip-rule:evenodd;stroke-linejoin:round;stroke-miterlimit:2;">
    <g id="Vector-3-3x" serif:id="Vector 3@3x" transform="matrix(1,0,0,1,159.732,114.82)">
        <g id="Vector-2" serif:id="Vector 2" transform="matrix(1,0,0,1,-0.348075,71.814)">
            <g transform="matrix(1,0,0,1,-160,-35.5)">
                <clipPath id="_clip1">
                    <rect x="0" y="0" width="320" height="71"/>
                </clipPath>
                <g clip-path="url(#_clip1)">
                    <path d="M0,4.682C3.672,3.336 18.826,0 36.051,0C57.581,0 90.627,1.776 154.217,20.987C159.927,22.712 194.273,33.417 202.785,35.193C211.297,36.969 230.323,41.327 248.849,41.489C267.375,41.65 279.893,40.843 301.423,32.448C317.888,26.029 320.59,21.592 320.951,19.86L320.951,19.049C320.951,19.049 321.062,19.326 320.951,19.86L320.951,72L0,72L0,4.682Z" style="fill:rgb(0,162,172);fill-rule:nonzero;"/>
                </g>
            </g>
        </g>
        <g id="Vector-3" serif:id="Vector 3" transform="matrix(1,0,0,1,-1.1522,73.0099)">
            <g transform="matrix(1,0,0,1,-160,-32.5)">
                <clipPath id="_clip2">
                    <rect x="0" y="0" width="320" height="65"/>
                </clipPath>
                <g clip-path="url(#_clip2)">
                    <path d="M33.425,0C16.657,0 4.822,2.567 0.998,3.765L0,70L320.781,70C320.947,54.882 321.178,24.645 320.779,24.645C320.28,24.645 305.314,36.455 292.842,41.589C280.37,46.724 269.893,49.804 251.934,49.633C233.974,49.462 204.041,45.012 158.145,28.069C121.427,14.513 96.316,8.463 88.5,7.094C88.5,7.094 60,-0 33.425,0Z" style="fill:rgb(48,212,222);fill-rule:nonzero;"/>
                </g>
            </g>
        </g>
    </g>
</svg>
